<svg xmlns="http://www.w3.org/2000/svg" width="145.46" height="135.97" viewBox="0 0 145.46 135.97"><title>footer-logo</title><path d="M132.19,96.36c-.29.53-.5.9-.71,1.27a59.18,59.18,0,0,1-61.24,30C46.8,124,27.16,105.54,22,82.36c-.32-1.43-.23-2.2,1.19-3.1a15,15,0,0,0-.32-25.44c-.31-.19-.63-.61-1-.39s-.17.71-.17,1.07v8.88a1.68,1.68,0,0,1-.82,1.67c-1.72,1.09-3.4,2.24-5.06,3.42a1.14,1.14,0,0,1-1.54,0c-1.53-1.1-3.09-2.18-4.69-3.17a2.22,2.22,0,0,1-1.21-2.21c.08-3.23,0-6.46,0-9.66-.59-.14-.87.19-1.18.38A15,15,0,0,0,6.37,78.9,5.7,5.7,0,0,1,8.94,83c6.23,34.34,39.71,58,74.22,52.06C105.8,131.2,122,118.45,132,97.78,132.2,97.42,132.56,97.05,132.19,96.36Z" transform="translate(0.01 -0.02)" fill="#fdfdfe"/><path d="M145.46,70.67a5.69,5.69,0,0,1-.4,2.2,14.21,14.21,0,0,0-.6,1.81,15.63,15.63,0,0,1-6.25,7.44c-.84.52-1.24.62-1.22-.63.07-3,0-5.92,0-8.88a1.91,1.91,0,0,0-1-1.9c-1.64-1-3.24-2.12-4.81-3.25a1.23,1.23,0,0,0-1.66,0c-1.62,1.16-3.26,2.28-4.94,3.34a1.69,1.69,0,0,0-.85,1.67v8.88c0,.36.21.85-.15,1.07s-.8-.19-1.15-.41a15.09,15.09,0,0,1-2.5-23.67,15.6,15.6,0,0,1,2.76-2.08,1.47,1.47,0,0,0,.85-1.94c-6-23.67-20.56-39.24-44.27-45C52,2.64,25.37,15.62,12.62,40.74c-.13.25-.26.51-.45.86-.29-.56.08-.91.22-1.23C22.42,18.13,39.2,4.44,63.32.75A64.76,64.76,0,0,1,136.63,53a5.2,5.2,0,0,0,2.49,4,14,14,0,0,1,6,8.78c0,.14,0,.32,0,.46a4.45,4.45,0,0,1,.27,1.23Z" transform="translate(0.01 -0.02)" fill="#0238fe"/><path d="M43.68,58.1c-2.36-.07-4.48.16-6.56-.29-1.87-.4-2.28-1.37-1.2-3a5.24,5.24,0,0,1,3.89-2,20.21,20.21,0,0,1,4.79-.2,1.37,1.37,0,0,0,1.55-.94,50.15,50.15,0,0,1,5.73-9.08c.25-.33.4-.81.94-.82,3.42,0,6.53-1.65,9.91-1.92,8.58-.67,17.14-1,25.6,1.09,1.39.33,2.69,1.07,4.21.83.6-.1.81.43,1.09.8a48.26,48.26,0,0,1,5.65,9,1.64,1.64,0,0,0,1.9,1.08,17.62,17.62,0,0,1,5.92.51,3.91,3.91,0,0,1,2.82,2.31c.55,1.41.28,1.94-1.2,2.29a22.15,22.15,0,0,1-5.51.33h-1c-.22.51.24.69.46,1q3,3.52,6.13,7a2.29,2.29,0,0,1,.63,1.69V94.12c0,1.26-.51,1.65-2.13,1.44l-5.84,0c-1.6.23-2.37,0-2.34-1.4,0-1.08.45-2.27-.18-2.94s-1.83,0-2.8-.07a8,8,0,0,1-4.88-1.57,1,1,0,0,0-1-.25,33.59,33.59,0,0,1-9.61,1.33,122.92,122.92,0,0,1-21.36-.52c-2.57-.35-5-1.09-7.49.61-1.12.77-2.74.47-4.14.31-.82-.09-1.2,0-1.21,1,0,3.56-.09,3.56-3.7,3.56H37.51a1.4,1.4,0,0,1-1.4-1.4V67.58A2.54,2.54,0,0,1,37,65.79C39.13,63.28,41.33,60.78,43.68,58.1Zm55.94-.59A40.37,40.37,0,0,0,92.28,45.1c-.44-.5-1-.31-1.48-.27a253.86,253.86,0,0,1-36.17,0,2,2,0,0,0-1.85.79,44.37,44.37,0,0,0-6.55,10.92c-.35.81-.2,1,.69,1.07,4,.18,7.94.5,11.9.65,5.38.2,10.73.87,16.12.65,3.63-.14,7.26-.38,10.89-.58ZM46.27,74.28a10.11,10.11,0,0,0,3.61-.69A1.82,1.82,0,0,0,51,71.86a1.55,1.55,0,0,0-1.18-1.6,35.74,35.74,0,0,0-9-2.17,1.53,1.53,0,0,0-1.64.67,3,3,0,0,0,1,4.13h0A13.68,13.68,0,0,0,46.27,74.28Zm52.94,0a13.07,13.07,0,0,0,6.31-1.52,2.78,2.78,0,0,0,1.08-3.43c-.44-1.39-1.45-1.31-2.57-1.16a36.12,36.12,0,0,0-8.26,2.08c-.74.29-1.25.69-1.24,1.56a1.84,1.84,0,0,0,1.18,1.82A10.74,10.74,0,0,0,99.21,74.28Z" transform="translate(0.01 -0.02)" fill="#fff"/><path d="M132.19,96.36c.37.69,0,1.06-.17,1.42-10,20.67-26.22,33.42-48.86,37.31C48.65,141,15.17,117.37,8.94,83a5.7,5.7,0,0,0-2.57-4.1,15,15,0,0,1,.84-25.09c.31-.19.59-.52,1.18-.38v9.66A2.22,2.22,0,0,0,9.57,65.3c1.6,1,3.16,2.07,4.69,3.17a1.14,1.14,0,0,0,1.54,0c1.66-1.18,3.34-2.33,5.06-3.42a1.68,1.68,0,0,0,.82-1.67V54.5c0-.36-.21-.85.17-1.07s.71.2,1,.39a15,15,0,0,1,.32,25.44c-1.42.9-1.51,1.67-1.19,3.1C27.16,105.54,46.8,124,70.24,127.6a59.18,59.18,0,0,0,61.24-30C131.69,97.26,131.9,96.89,132.19,96.36Z" transform="translate(0.01 -0.02)" fill="#fff"/></svg>