<svg xmlns="http://www.w3.org/2000/svg" width="401.44" height="136" viewBox="0 0 401.44 136"><title>logo-dark</title><path d="M163.72,94.28V43.18H175.2v51.1Zm33.6,0L179.68,70.41h-7.07L194,43.18h13.16L187.94,67.61l-.14-5,23.38,31.64Z" transform="translate(0 0)" fill="#181616"/><path d="M224.62,95.26a16.77,16.77,0,0,1-7.24-1.47,11.32,11.32,0,0,1-4.87-4.24,12.07,12.07,0,0,1-1.75-6.61,10.65,10.65,0,0,1,2.17-6.9,12.81,12.81,0,0,1,6.09-4,28.85,28.85,0,0,1,9-1.29h8.19V77H228a6.52,6.52,0,0,0-4.52,1.43,5,5,0,0,0-1.57,3.89,4.84,4.84,0,0,0,1.57,3.74A6.47,6.47,0,0,0,228,87.49a8.25,8.25,0,0,0,3.4-.67,5.5,5.5,0,0,0,2.48-2.27A9.54,9.54,0,0,0,235,80.07l2.66,2.8a16.11,16.11,0,0,1-1.93,6.72,10.67,10.67,0,0,1-4.33,4.2A14.28,14.28,0,0,1,224.62,95.26Zm12.25-1V82.94H235V70.62a6.19,6.19,0,0,0-1.4-4.41,6,6,0,0,0-4.48-1.47c-1,0-2.38,0-4.06.07s-3.41.11-5.18.21-3.38.19-4.83.28V55.85c1.07-.1,2.33-.19,3.78-.28s2.94-.17,4.48-.21,3-.07,4.34-.07A25.81,25.81,0,0,1,237.54,57,12.74,12.74,0,0,1,243.66,62a16.37,16.37,0,0,1,2.1,8.72V94.28Z" transform="translate(0 0)" fill="#181616"/><path d="M253.53,94.28V55.92h8.89V72.37h-.21q0-8.12,3.46-12.53t10.05-4.41h1.47v9.66h-2.8q-4.62,0-7.14,2.48t-2.52,7.18V94.28Z" transform="translate(0 0)" fill="#181616"/><path d="M295.81,95.47q-8.19,0-12.81-3.36a11.71,11.71,0,0,1-4.9-9.45H288a5,5,0,0,0,2.2,3.25A9.62,9.62,0,0,0,296,87.35a10.3,10.3,0,0,0,4.86-1,3.18,3.18,0,0,0,.46-5.6,12.33,12.33,0,0,0-5.25-1.43l-3-.28q-6.93-.7-10.4-3.85a10.4,10.4,0,0,1-3.46-8,11,11,0,0,1,2-6.79,12.38,12.38,0,0,1,5.63-4.13,22.51,22.51,0,0,1,8.23-1.4q7.41,0,12,3.25a11.39,11.39,0,0,1,4.76,9.42H301.9a4.87,4.87,0,0,0-2-3.19A8.08,8.08,0,0,0,295,63a7.54,7.54,0,0,0-4.13,1,3,3,0,0,0-1.54,2.66,2.72,2.72,0,0,0,1.33,2.45A10.76,10.76,0,0,0,295,70.27l3,.28q7.06.77,11,3.92a10.31,10.31,0,0,1,3.92,8.47,10.92,10.92,0,0,1-2.1,6.68,13.13,13.13,0,0,1-6,4.34A24.62,24.62,0,0,1,295.81,95.47Z" transform="translate(0 0)" fill="#181616"/><path d="M314.71,64.46V56.27h23v8.19Zm4.48,29.82V55.15q0-6.66,3.74-9.87T334,42.06h3.78v8.4h-4.27a3.87,3.87,0,0,0-2.91,1,4.08,4.08,0,0,0-1,2.94V94.28Zm21.49-30.1V55.92h15.75v8.26Zm8.89-12a6,6,0,0,1-4.66-1.65,5.92,5.92,0,0,1-1.5-4.16,5.47,5.47,0,0,1,6.16-5.88c2.14,0,3.71.55,4.69,1.64a6.13,6.13,0,0,1,1.47,4.24,6,6,0,0,1-1.47,4.16C353.28,51.59,351.71,52.14,349.57,52.14Zm-4.34,42.14V55.92h11.2V94.28Z" transform="translate(0 0)" fill="#0036ff"/><path d="M360.77,94.28l11.9-20.58-.28,1.75-11.2-19.53H373.3l6.93,13h1.12l6.51-13h11.41L388.56,75.59l.28-1.47,12.6,20.16H389.26L381,80.35h-1.12l-7.77,13.93Z" transform="translate(0 0)" fill="#0036ff"/><path d="M132.19,96.36c-.29.53-.5.9-.71,1.27a59.16,59.16,0,0,1-61.24,30C46.8,124,27.16,105.54,22,82.36c-.32-1.43-.23-2.2,1.19-3.1a15,15,0,0,0-.32-25.44c-.31-.19-.63-.61-1-.39s-.17.71-.17,1.07c0,3,0,5.92,0,8.88a1.68,1.68,0,0,1-.82,1.67c-1.72,1.09-3.4,2.24-5.06,3.42a1.13,1.13,0,0,1-1.54,0c-1.53-1.1-3.09-2.18-4.69-3.17a2.22,2.22,0,0,1-1.21-2.21c.08-3.23,0-6.46,0-9.66-.59-.14-.87.19-1.18.38A15,15,0,0,0,6.37,78.9,5.69,5.69,0,0,1,8.94,83c6.23,34.34,39.71,58,74.22,52.06C105.8,131.2,122,118.45,132,97.78,132.2,97.42,132.56,97.05,132.19,96.36Z" transform="translate(0 0)" fill="#fdfdfe"/><path d="M145.46,72a13.35,13.35,0,0,0-1,2.68,15.58,15.58,0,0,1-6.25,7.44c-.84.52-1.24.62-1.22-.63.07-3,0-5.92,0-8.88a1.9,1.9,0,0,0-1-1.9c-1.64-1-3.24-2.12-4.81-3.25a1.22,1.22,0,0,0-1.66,0c-1.62,1.16-3.26,2.28-4.94,3.34a1.69,1.69,0,0,0-.85,1.67c0,3,0,5.92,0,8.88,0,.36.21.85-.15,1.07s-.8-.19-1.15-.41a15.06,15.06,0,0,1,.17-25.69c.86-.52,1.22-.9.94-2-6-23.67-20.56-39.24-44.27-45-27.27-6.68-53.9,6.3-66.65,31.42-.13.25-.26.51-.45.86-.29-.56.08-.91.22-1.23C22.42,18.13,39.2,4.44,63.32.75A64.76,64.76,0,0,1,136.63,53a5.2,5.2,0,0,0,2.49,4,14,14,0,0,1,6,8.78c.06.25-.06.6.32.72Z" transform="translate(0 0)" fill="#0238fe"/><path d="M43.68,58.1c-2.36-.07-4.48.16-6.56-.29-1.87-.4-2.28-1.37-1.2-3a5.23,5.23,0,0,1,3.89-2,20.23,20.23,0,0,1,4.79-.2,1.37,1.37,0,0,0,1.55-.94,50.15,50.15,0,0,1,5.73-9.08c.25-.33.4-.81.94-.82,3.42,0,6.53-1.65,9.91-1.92,8.58-.67,17.14-1,25.6,1.09,1.39.33,2.69,1.07,4.21.83.6-.1.81.43,1.09.8a48.62,48.62,0,0,1,5.65,9,1.64,1.64,0,0,0,1.9,1.08,17.62,17.62,0,0,1,5.92.51,3.91,3.91,0,0,1,2.82,2.31c.55,1.41.28,1.94-1.2,2.29a22.12,22.12,0,0,1-5.51.33h-1c-.22.51.24.69.46,1q3,3.53,6.13,7a2.3,2.3,0,0,1,.63,1.69q0,13.17,0,26.34c0,1.06-.36,1.5-1.43,1.49-2.47,0-4.95,0-7.42,0-1,0-1.48-.39-1.46-1.47s.45-2.27-.18-2.94-1.83,0-2.8-.07a8,8,0,0,1-4.88-1.57,1,1,0,0,0-1-.25,33.63,33.63,0,0,1-9.61,1.33,122.89,122.89,0,0,1-21.36-.52c-2.57-.35-5-1.09-7.49.61-1.12.77-2.74.47-4.14.31-.82-.09-1.2,0-1.21,1,0,3.56-.09,3.56-3.7,3.56-1.75,0-3.5,0-5.24,0-1,0-1.4-.39-1.4-1.39q0-13.32,0-26.63A2.57,2.57,0,0,1,37,65.79C39.13,63.28,41.33,60.78,43.68,58.1Zm55.94-.59A40.31,40.31,0,0,0,92.28,45.1c-.44-.5-1-.31-1.48-.27a253.86,253.86,0,0,1-36.17,0,2,2,0,0,0-1.85.79,44.37,44.37,0,0,0-6.55,10.92c-.35.81-.2,1,.69,1.07,4,.18,7.94.5,11.9.65,5.38.2,10.73.87,16.12.65,3.63-.14,7.26-.38,10.89-.58ZM46.27,74.28a10.23,10.23,0,0,0,3.61-.69A1.81,1.81,0,0,0,51,71.86a1.56,1.56,0,0,0-1.18-1.6,36.05,36.05,0,0,0-9-2.17,1.53,1.53,0,0,0-1.64.67,3,3,0,0,0,1,4.13A13.66,13.66,0,0,0,46.27,74.28Zm52.94,0a13,13,0,0,0,6.31-1.52,2.78,2.78,0,0,0,1.08-3.43c-.44-1.39-1.45-1.31-2.57-1.16a36.25,36.25,0,0,0-8.26,2.08c-.74.29-1.25.69-1.24,1.56a1.84,1.84,0,0,0,1.18,1.82A10.67,10.67,0,0,0,99.21,74.28Z" transform="translate(0 0)" fill="#0237fe"/><path d="M132.19,96.36c.37.69,0,1.06-.17,1.42-10,20.67-26.22,33.42-48.86,37.31C48.65,141,15.17,117.37,8.94,83A5.69,5.69,0,0,0,6.37,78.9a15,15,0,0,1,.84-25.09c.31-.19.59-.52,1.18-.38,0,3.2,0,6.43,0,9.66A2.22,2.22,0,0,0,9.57,65.3c1.6,1,3.16,2.07,4.69,3.17a1.13,1.13,0,0,0,1.54,0c1.66-1.18,3.34-2.33,5.06-3.42a1.68,1.68,0,0,0,.82-1.67c0-3,0-5.92,0-8.88,0-.36-.21-.85.17-1.07s.71.2,1,.39a15,15,0,0,1,.32,25.44c-1.42.9-1.51,1.67-1.19,3.1C27.16,105.54,46.8,124,70.24,127.6a59.16,59.16,0,0,0,61.24-30C131.69,97.26,131.9,96.89,132.19,96.36Z" transform="translate(0 0)" fill="#020202"/></svg>