<svg xmlns="http://www.w3.org/2000/svg" width="401.45" height="135.97" viewBox="0 0 401.45 135.97"><title>logo-white</title><path d="M163.73,94.26V43.16h11.48v51.1Zm33.6,0L179.69,70.39h-7.07L194,43.16h13.16L188,67.59l-.14-5,23.38,31.64Z" transform="translate(0 0)" fill="#fff"/><path d="M224.63,95.24a16.86,16.86,0,0,1-7.24-1.47,11.31,11.31,0,0,1-4.87-4.24,12,12,0,0,1-1.75-6.61,10.66,10.66,0,0,1,2.17-6.9A12.87,12.87,0,0,1,219,72a28.88,28.88,0,0,1,9-1.29h8.19V77H228a6.49,6.49,0,0,0-4.52,1.43,5,5,0,0,0-1.57,3.89A4.82,4.82,0,0,0,223.49,86,6.49,6.49,0,0,0,228,87.47a8.26,8.26,0,0,0,3.4-.67,5.51,5.51,0,0,0,2.48-2.27A9.6,9.6,0,0,0,235,80.05l2.66,2.8a16,16,0,0,1-1.93,6.72,10.61,10.61,0,0,1-4.33,4.2A14.34,14.34,0,0,1,224.63,95.24Zm12.25-1V82.92H235V70.6a6.18,6.18,0,0,0-1.4-4.41,6,6,0,0,0-4.48-1.47c-1,0-2.38,0-4.06.07s-3.41.11-5.18.21l-4.83.28V55.83c1.07-.1,2.33-.19,3.78-.28s2.94-.17,4.48-.21,3-.07,4.34-.07A25.87,25.87,0,0,1,237.55,57a12.78,12.78,0,0,1,6.12,5,16.29,16.29,0,0,1,2.1,8.72V94.26Z" transform="translate(0 0)" fill="#fff"/><path d="M253.54,94.26V55.9h8.89V72.35h-.21q0-8.11,3.46-12.53t10.05-4.41h1.47v9.66h-2.8q-4.62,0-7.14,2.48c-1.68,1.65-2.52,4-2.52,7.18V94.26Z" transform="translate(0 0)" fill="#fff"/><path d="M295.82,95.45q-8.19,0-12.81-3.36a11.71,11.71,0,0,1-4.9-9.45H288a5,5,0,0,0,2.2,3.25,9.62,9.62,0,0,0,5.8,1.44,10.31,10.31,0,0,0,4.86-1,3.19,3.19,0,0,0,1.67-4.18,3.15,3.15,0,0,0-1.21-1.42,12.37,12.37,0,0,0-5.25-1.43l-3-.28q-6.93-.7-10.4-3.85a10.41,10.41,0,0,1-3.46-8,11,11,0,0,1,2-6.79,12.4,12.4,0,0,1,5.63-4.13,22.41,22.41,0,0,1,8.23-1.4q7.41,0,12,3.25a11.4,11.4,0,0,1,4.76,9.42h-9.93a4.84,4.84,0,0,0-2-3.19A8,8,0,0,0,295,63a7.56,7.56,0,0,0-4.13,1,3,3,0,0,0-1.54,2.66,2.72,2.72,0,0,0,1.33,2.45A10.79,10.79,0,0,0,295,70.25l3,.28q7.07.77,11,3.92a10.32,10.32,0,0,1,3.92,8.47,11,11,0,0,1-2.1,6.68,13.15,13.15,0,0,1-6,4.34A24.7,24.7,0,0,1,295.82,95.45Z" transform="translate(0 0)" fill="#fff"/><path d="M314.72,64.44V56.25h23v8.19Zm4.48,29.82V55.13q0-6.66,3.74-9.87T334,42h3.78v8.4h-4.27a3.88,3.88,0,0,0-2.91,1,4.06,4.06,0,0,0-1,2.94V94.26Zm21.49-30.1V55.9h15.75v8.26Zm8.89-12a6,6,0,0,1-4.66-1.65,5.89,5.89,0,0,1-1.5-4.16,5.47,5.47,0,0,1,5-5.91h0a5.72,5.72,0,0,1,1.17,0c2.14,0,3.71.55,4.69,1.64a6.14,6.14,0,0,1,1.47,4.24,6,6,0,0,1-1.47,4.16,6.14,6.14,0,0,1-4.69,1.61ZM345.24,94.3V55.9h11.2V94.26Z" transform="translate(0 0)" fill="#fff"/><path d="M360.78,94.26l11.9-20.58-.28,1.75L361.2,55.9h12.11l6.93,13h1.12l6.51-13h11.41L388.57,75.57l.28-1.47,12.6,20.16H389.27L381,80.33h-1.12l-7.77,13.93Z" transform="translate(0 0)" fill="#fff"/><path d="M132.2,96.34c-.29.53-.5.9-.71,1.27a59.18,59.18,0,0,1-61.24,30C46.81,124,27.17,105.52,22,82.34c-.32-1.43-.23-2.2,1.19-3.1a15,15,0,0,0-.32-25.44c-.31-.19-.63-.61-1-.39s-.17.71-.17,1.07v8.88A1.68,1.68,0,0,1,20.89,65c-1.72,1.09-3.4,2.24-5.06,3.42a1.14,1.14,0,0,1-1.54,0c-1.53-1.1-3.09-2.18-4.69-3.17a2.22,2.22,0,0,1-1.21-2.21c.08-3.23,0-6.46,0-9.66-.59-.14-.87.19-1.18.38a15,15,0,0,0-.83,25.09A5.73,5.73,0,0,1,9,83c6.23,34.34,39.71,58,74.22,52.06C105.81,131.18,122,118.43,132,97.76,132.21,97.4,132.57,97,132.2,96.34Z" transform="translate(0 0)" fill="#fdfdfe"/><path d="M145.47,72a13.28,13.28,0,0,0-1,2.68,15.63,15.63,0,0,1-6.25,7.44c-.84.52-1.24.62-1.22-.63.07-3,0-5.92,0-8.88a1.91,1.91,0,0,0-1-1.9c-1.64-1-3.24-2.12-4.81-3.25a1.23,1.23,0,0,0-1.66,0c-1.62,1.16-3.26,2.28-4.94,3.34a1.69,1.69,0,0,0-.85,1.67v8.88c0,.36.21.85-.15,1.07s-.8-.19-1.15-.41a15,15,0,0,1,.17-25.69c.86-.52,1.22-.9.94-2-6-23.67-20.56-39.24-44.27-45C52,2.62,25.38,15.6,12.63,40.72c-.13.25-.26.51-.45.86-.29-.56.08-.91.22-1.23C22.43,18.11,39.21,4.42,63.33.73A64.76,64.76,0,0,1,136.64,53a5.2,5.2,0,0,0,2.49,4,14,14,0,0,1,6,8.78c.06.25-.06.6.32.72Z" transform="translate(0 0)" fill="#fff"/><path d="M43.69,58.08c-2.36-.07-4.48.16-6.56-.29-1.87-.4-2.28-1.37-1.2-3a5.24,5.24,0,0,1,3.89-2,20.21,20.21,0,0,1,4.79-.2,1.37,1.37,0,0,0,1.55-.94,50.15,50.15,0,0,1,5.73-9.08c.25-.33.4-.81.94-.82,3.42,0,6.53-1.65,9.91-1.92,8.58-.67,17.14-1,25.6,1.09,1.39.33,2.69,1.07,4.21.83.6-.1.81.43,1.09.8a48.26,48.26,0,0,1,5.65,9,1.64,1.64,0,0,0,1.9,1.08,17.62,17.62,0,0,1,5.92.51,3.91,3.91,0,0,1,2.82,2.31c.55,1.41.28,1.94-1.2,2.29a22.15,22.15,0,0,1-5.51.33h-1c-.22.51.24.69.46,1q3,3.52,6.13,7a2.29,2.29,0,0,1,.63,1.69V94.1c0,1.06-.36,1.5-1.43,1.49h-7.42c-1,0-1.48-.39-1.46-1.47s.45-2.27-.18-2.94-1.83,0-2.8-.07a8,8,0,0,1-4.88-1.57,1,1,0,0,0-1-.25,33.59,33.59,0,0,1-9.61,1.33A122.92,122.92,0,0,1,59.3,90.1c-2.57-.35-5-1.09-7.49.61-1.12.77-2.74.47-4.14.31-.82-.09-1.2,0-1.21,1,0,3.56-.09,3.56-3.7,3.56H37.52c-1,0-1.4-.39-1.4-1.39V67.56A2.54,2.54,0,0,1,37,65.77C39.14,63.26,41.34,60.76,43.69,58.08Zm55.94-.59a40.37,40.37,0,0,0-7.34-12.41c-.44-.5-1-.31-1.48-.27a253.86,253.86,0,0,1-36.17,0,2,2,0,0,0-1.85.79,44.37,44.37,0,0,0-6.55,10.92c-.35.81-.2,1,.69,1.07,4,.18,7.94.5,11.9.65,5.38.2,10.73.87,16.12.65,3.63-.14,7.26-.38,10.89-.58ZM46.28,74.26a10.11,10.11,0,0,0,3.61-.69A1.82,1.82,0,0,0,51,71.84a1.54,1.54,0,0,0-1.18-1.6,35.74,35.74,0,0,0-9-2.17,1.53,1.53,0,0,0-1.64.67,3,3,0,0,0,1,4.13h0A13.68,13.68,0,0,0,46.28,74.26Zm52.94,0a13.07,13.07,0,0,0,6.31-1.52,2.78,2.78,0,0,0,1.08-3.43c-.44-1.39-1.45-1.31-2.57-1.16a36.12,36.12,0,0,0-8.26,2.08c-.74.29-1.25.69-1.24,1.56a1.84,1.84,0,0,0,1.18,1.82A10.74,10.74,0,0,0,99.22,74.26Z" transform="translate(0 0)" fill="#fff"/><path d="M132.2,96.34c.37.69,0,1.06-.17,1.42-10,20.67-26.22,33.42-48.86,37.31C48.66,141,15.18,117.35,9,83a5.73,5.73,0,0,0-2.57-4.1,15,15,0,0,1,.84-25.09c.31-.19.59-.52,1.18-.38v9.66a2.22,2.22,0,0,0,1.18,2.21c1.6,1,3.16,2.07,4.69,3.17a1.14,1.14,0,0,0,1.54,0c1.66-1.18,3.34-2.33,5.06-3.42a1.68,1.68,0,0,0,.82-1.67V54.48c0-.36-.21-.85.17-1.07s.71.2,1,.39a15,15,0,0,1,.32,25.44c-1.42.9-1.51,1.67-1.19,3.1,5.18,23.18,24.82,41.64,48.26,45.24a59.18,59.18,0,0,0,61.24-30C131.7,97.24,131.91,96.87,132.2,96.34Z" transform="translate(0 0)" fill="#fff"/></svg>