<svg xmlns="http://www.w3.org/2000/svg" xmlns:xlink="http://www.w3.org/1999/xlink" width="500" zoomAndPan="magnify" viewBox="0 0 375 374.999991" height="500" preserveAspectRatio="xMidYMid meet" version="1.2"><defs><clipPath id="c28759e0e1"><path d="M 80.679688 159.96875 L 138 159.96875 L 138 214.71875 L 80.679688 214.71875 Z M 80.679688 159.96875 "/></clipPath><clipPath id="487efd307d"><path d="M 87 192 L 109 192 L 109 197.574219 L 87 197.574219 Z M 87 192 "/></clipPath><clipPath id="5b954b0791"><path d="M 87 189 L 134 189 L 134 197.574219 L 87 197.574219 Z M 87 189 "/></clipPath><clipPath id="aac99f270b"><path d="M 85.09375 184 L 137.59375 184 L 137.59375 195 L 85.09375 195 Z M 85.09375 184 "/></clipPath></defs><g id="aae1ac3f68"><g style="fill:#ffffff;fill-opacity:1;"><g transform="translate(137.572401, 187.985143)"><path style="stroke:none" d="M 0.15625 -12.703125 L 0.15625 -15.875 L 11.3125 -15.875 L 11.3125 -12.703125 L 7.546875 -12.703125 L 7.546875 0 L 3.921875 0 L 3.921875 -12.703125 Z M 0.15625 -12.703125 "/></g></g><g style="fill:#ffffff;fill-opacity:1;"><g transform="translate(150.003087, 187.985143)"><path style="stroke:none" d="M 1.15625 -15.875 L 6.828125 -15.875 C 8.359375 -15.875 9.601562 -15.46875 10.5625 -14.65625 C 11.53125 -13.84375 12.015625 -12.679688 12.015625 -11.171875 C 12.015625 -9.992188 11.722656 -9.007812 11.140625 -8.21875 C 10.554688 -7.4375 9.765625 -6.882812 8.765625 -6.5625 L 14.21875 0 L 9.625 0 L 4.78125 -6.28125 L 4.78125 0 L 1.15625 0 Z M 4.78125 -8.828125 L 5.203125 -8.828125 C 5.535156 -8.828125 5.816406 -8.832031 6.046875 -8.84375 C 6.273438 -8.863281 6.535156 -8.910156 6.828125 -8.984375 C 7.128906 -9.066406 7.367188 -9.175781 7.546875 -9.3125 C 7.722656 -9.457031 7.875 -9.664062 8 -9.9375 C 8.132812 -10.207031 8.203125 -10.535156 8.203125 -10.921875 C 8.203125 -11.304688 8.132812 -11.628906 8 -11.890625 C 7.875 -12.160156 7.722656 -12.363281 7.546875 -12.5 C 7.367188 -12.644531 7.128906 -12.753906 6.828125 -12.828125 C 6.535156 -12.910156 6.273438 -12.957031 6.046875 -12.96875 C 5.816406 -12.988281 5.535156 -13 5.203125 -13 L 4.78125 -13 Z M 4.78125 -8.828125 "/></g></g><g style="fill:#ffffff;fill-opacity:1;"><g transform="translate(164.742836, 187.985143)"><path style="stroke:none" d="M 9.21875 -15.875 L 15.625 0 L 11.75 0 L 10.5625 -3.171875 L 4.53125 -3.171875 L 3.34375 0 L -0.53125 0 L 5.875 -15.875 Z M 9.34375 -6.359375 L 7.5625 -10.96875 L 7.53125 -10.96875 L 5.75 -6.359375 Z M 9.34375 -6.359375 "/></g></g><g style="fill:#ffffff;fill-opacity:1;"><g transform="translate(180.791056, 187.985143)"><path style="stroke:none" d="M 16.015625 0 L 11.34375 0 L 7.578125 -5.40625 L 3.828125 0 L -0.65625 0 L 5.34375 -8.546875 L 0.34375 -15.875 L 4.65625 -15.875 L 7.578125 -11.546875 L 10.515625 -15.875 L 15.015625 -15.875 L 9.8125 -8.546875 Z M 16.015625 0 "/></g></g><g style="fill:#ffffff;fill-opacity:1;"><g transform="translate(197.108659, 187.985143)"><path style="stroke:none" d=""/></g></g><g style="fill:#ffffff;fill-opacity:1;"><g transform="translate(203.324128, 187.985143)"><path style="stroke:none" d="M 1.15625 -15.875 L 6.078125 -15.875 C 7.566406 -15.875 8.753906 -15.554688 9.640625 -14.921875 C 10.523438 -14.285156 10.96875 -13.257812 10.96875 -11.84375 C 10.96875 -10.25 10.304688 -9.113281 8.984375 -8.4375 C 11.242188 -8.03125 12.375 -6.691406 12.375 -4.421875 C 12.375 -3.085938 11.910156 -2.015625 10.984375 -1.203125 C 10.066406 -0.398438 8.800781 0 7.1875 0 L 1.15625 0 Z M 4.78125 -9.65625 L 5.0625 -9.65625 C 5.875 -9.65625 6.476562 -9.796875 6.875 -10.078125 C 7.269531 -10.367188 7.46875 -10.832031 7.46875 -11.46875 C 7.46875 -12.550781 6.664062 -13.09375 5.0625 -13.09375 L 4.78125 -13.09375 Z M 4.78125 -2.796875 L 5.90625 -2.796875 C 7.675781 -2.796875 8.5625 -3.382812 8.5625 -4.5625 C 8.5625 -5.269531 8.335938 -5.773438 7.890625 -6.078125 C 7.453125 -6.390625 6.789062 -6.546875 5.90625 -6.546875 L 4.78125 -6.546875 Z M 4.78125 -2.796875 "/></g></g><g style="fill:#ffffff;fill-opacity:1;"><g transform="translate(217.101772, 187.985143)"><path style="stroke:none" d="M 0.4375 -7.953125 C 0.4375 -10.242188 1.21875 -12.1875 2.78125 -13.78125 C 4.351562 -15.375 6.242188 -16.171875 8.453125 -16.171875 C 10.671875 -16.171875 12.554688 -15.378906 14.109375 -13.796875 C 15.660156 -12.210938 16.4375 -10.265625 16.4375 -7.953125 C 16.4375 -5.628906 15.671875 -3.675781 14.140625 -2.09375 C 12.617188 -0.507812 10.722656 0.28125 8.453125 0.28125 C 6.128906 0.28125 4.210938 -0.5 2.703125 -2.0625 C 1.191406 -3.632812 0.4375 -5.597656 0.4375 -7.953125 Z M 4.34375 -7.953125 C 4.34375 -7.117188 4.472656 -6.359375 4.734375 -5.671875 C 4.992188 -4.984375 5.441406 -4.398438 6.078125 -3.921875 C 6.722656 -3.453125 7.515625 -3.21875 8.453125 -3.21875 C 9.796875 -3.21875 10.8125 -3.675781 11.5 -4.59375 C 12.1875 -5.519531 12.53125 -6.640625 12.53125 -7.953125 C 12.53125 -9.242188 12.179688 -10.351562 11.484375 -11.28125 C 10.785156 -12.21875 9.773438 -12.6875 8.453125 -12.6875 C 7.140625 -12.6875 6.125 -12.21875 5.40625 -11.28125 C 4.695312 -10.351562 4.34375 -9.242188 4.34375 -7.953125 Z M 4.34375 -7.953125 "/></g></g><g style="fill:#ffffff;fill-opacity:1;"><g transform="translate(234.939505, 187.985143)"><path style="stroke:none" d="M 9.21875 -15.875 L 15.625 0 L 11.75 0 L 10.5625 -3.171875 L 4.53125 -3.171875 L 3.34375 0 L -0.53125 0 L 5.875 -15.875 Z M 9.34375 -6.359375 L 7.5625 -10.96875 L 7.53125 -10.96875 L 5.75 -6.359375 Z M 9.34375 -6.359375 "/></g></g><g style="fill:#ffffff;fill-opacity:1;"><g transform="translate(250.987726, 187.985143)"><path style="stroke:none" d="M 0.15625 -12.703125 L 0.15625 -15.875 L 11.3125 -15.875 L 11.3125 -12.703125 L 7.546875 -12.703125 L 7.546875 0 L 3.921875 0 L 3.921875 -12.703125 Z M 0.15625 -12.703125 "/></g></g><g style="fill:#ffffff;fill-opacity:1;"><g transform="translate(263.418412, 187.985143)"><path style="stroke:none" d="M 7 -16.171875 C 7.863281 -16.171875 8.707031 -16.046875 9.53125 -15.796875 C 10.351562 -15.546875 10.960938 -15.296875 11.359375 -15.046875 L 11.9375 -14.671875 L 10.46875 -11.78125 C 10.351562 -11.851562 10.191406 -11.953125 9.984375 -12.078125 C 9.785156 -12.203125 9.398438 -12.363281 8.828125 -12.5625 C 8.265625 -12.769531 7.738281 -12.875 7.25 -12.875 C 6.65625 -12.875 6.191406 -12.742188 5.859375 -12.484375 C 5.535156 -12.234375 5.375 -11.890625 5.375 -11.453125 C 5.375 -11.234375 5.445312 -11.03125 5.59375 -10.84375 C 5.75 -10.65625 6.015625 -10.457031 6.390625 -10.25 C 6.765625 -10.039062 7.09375 -9.867188 7.375 -9.734375 C 7.65625 -9.609375 8.09375 -9.414062 8.6875 -9.15625 C 9.707031 -8.726562 10.578125 -8.132812 11.296875 -7.375 C 12.023438 -6.625 12.390625 -5.773438 12.390625 -4.828125 C 12.390625 -3.921875 12.226562 -3.125 11.90625 -2.4375 C 11.582031 -1.757812 11.132812 -1.226562 10.5625 -0.84375 C 9.988281 -0.457031 9.351562 -0.175781 8.65625 0 C 7.96875 0.1875 7.21875 0.28125 6.40625 0.28125 C 5.71875 0.28125 5.039062 0.207031 4.375 0.0625 C 3.707031 -0.0703125 3.144531 -0.242188 2.6875 -0.453125 C 2.238281 -0.660156 1.832031 -0.867188 1.46875 -1.078125 C 1.113281 -1.285156 0.851562 -1.457031 0.6875 -1.59375 L 0.4375 -1.8125 L 2.25 -4.84375 C 2.40625 -4.71875 2.617188 -4.554688 2.890625 -4.359375 C 3.160156 -4.160156 3.632812 -3.894531 4.3125 -3.5625 C 5 -3.226562 5.609375 -3.0625 6.140625 -3.0625 C 7.671875 -3.0625 8.4375 -3.582031 8.4375 -4.625 C 8.4375 -4.84375 8.378906 -5.039062 8.265625 -5.21875 C 8.160156 -5.40625 7.96875 -5.59375 7.6875 -5.78125 C 7.414062 -5.96875 7.171875 -6.113281 6.953125 -6.21875 C 6.742188 -6.332031 6.398438 -6.5 5.921875 -6.71875 C 5.441406 -6.945312 5.082031 -7.117188 4.84375 -7.234375 C 3.882812 -7.710938 3.140625 -8.304688 2.609375 -9.015625 C 2.085938 -9.734375 1.828125 -10.5 1.828125 -11.3125 C 1.828125 -12.738281 2.351562 -13.90625 3.40625 -14.8125 C 4.457031 -15.71875 5.65625 -16.171875 7 -16.171875 Z M 7 -16.171875 "/></g></g><g style="fill:#ffffff;fill-opacity:1;"><g transform="translate(156.635151, 205.026915)"><path style="stroke:none" d="M 0.375 -2.78125 C 0.375 -3.101562 0.445312 -3.40625 0.59375 -3.6875 C 0.738281 -3.976562 0.941406 -4.242188 1.203125 -4.484375 C 1.472656 -4.722656 1.742188 -4.929688 2.015625 -5.109375 C 2.285156 -5.296875 2.597656 -5.484375 2.953125 -5.671875 C 2.242188 -6.554688 1.890625 -7.335938 1.890625 -8.015625 C 1.890625 -8.859375 2.179688 -9.53125 2.765625 -10.03125 C 3.347656 -10.53125 4.179688 -10.78125 5.265625 -10.78125 C 6.253906 -10.78125 7.023438 -10.5 7.578125 -9.9375 C 8.128906 -9.382812 8.40625 -8.742188 8.40625 -8.015625 C 8.40625 -7.710938 8.332031 -7.414062 8.1875 -7.125 C 8.039062 -6.84375 7.863281 -6.601562 7.65625 -6.40625 C 7.457031 -6.207031 7.253906 -6.03125 7.046875 -5.875 C 6.847656 -5.71875 6.675781 -5.601562 6.53125 -5.53125 L 6.3125 -5.40625 L 7.71875 -3.953125 C 8.03125 -4.085938 8.550781 -4.53125 9.28125 -5.28125 L 10.765625 -3.828125 C 10.285156 -3.273438 9.785156 -2.789062 9.265625 -2.375 L 11.546875 0 L 8.5 0 L 7.453125 -1.09375 C 7.128906 -0.863281 6.890625 -0.695312 6.734375 -0.59375 C 6.578125 -0.5 6.347656 -0.375 6.046875 -0.21875 C 5.742188 -0.0625 5.429688 0.0390625 5.109375 0.09375 C 4.785156 0.15625 4.429688 0.1875 4.046875 0.1875 C 3.710938 0.1875 3.382812 0.160156 3.0625 0.109375 C 2.738281 0.0546875 2.410156 -0.0351562 2.078125 -0.171875 C 1.753906 -0.316406 1.46875 -0.5 1.21875 -0.71875 C 0.96875 -0.9375 0.765625 -1.222656 0.609375 -1.578125 C 0.453125 -1.929688 0.375 -2.332031 0.375 -2.78125 Z M 5.265625 -9.0625 C 4.953125 -9.0625 4.71875 -8.960938 4.5625 -8.765625 C 4.40625 -8.578125 4.328125 -8.328125 4.328125 -8.015625 C 4.328125 -7.835938 4.390625 -7.640625 4.515625 -7.421875 C 4.648438 -7.203125 4.78125 -7.03125 4.90625 -6.90625 L 5.109375 -6.71875 C 5.890625 -7.144531 6.28125 -7.578125 6.28125 -8.015625 C 6.28125 -8.710938 5.941406 -9.0625 5.265625 -9.0625 Z M 5.890625 -2.6875 L 4.203125 -4.34375 C 4.179688 -4.332031 4.144531 -4.316406 4.09375 -4.296875 C 4.039062 -4.273438 3.945312 -4.222656 3.8125 -4.140625 C 3.6875 -4.066406 3.578125 -3.976562 3.484375 -3.875 C 3.390625 -3.78125 3.300781 -3.648438 3.21875 -3.484375 C 3.144531 -3.328125 3.109375 -3.15625 3.109375 -2.96875 C 3.109375 -2.6875 3.226562 -2.46875 3.46875 -2.3125 C 3.707031 -2.164062 3.984375 -2.09375 4.296875 -2.09375 C 4.554688 -2.09375 4.816406 -2.140625 5.078125 -2.234375 C 5.347656 -2.335938 5.550781 -2.441406 5.6875 -2.546875 Z M 5.890625 -2.6875 "/></g></g><g style="fill:#ffffff;fill-opacity:1;"><g transform="translate(169.891219, 205.026915)"><path style="stroke:none" d=""/></g></g><g style="fill:#ffffff;fill-opacity:1;"><g transform="translate(175.961348, 205.026915)"><path style="stroke:none" d="M 0.109375 -8.46875 L 0.109375 -10.578125 L 7.546875 -10.578125 L 7.546875 -8.46875 L 5.03125 -8.46875 L 5.03125 0 L 2.609375 0 L 2.609375 -8.46875 Z M 0.109375 -8.46875 "/></g></g><g style="fill:#ffffff;fill-opacity:1;"><g transform="translate(186.17623, 205.026915)"><path style="stroke:none" d="M 0.765625 -10.578125 L 4.546875 -10.578125 C 5.566406 -10.578125 6.394531 -10.304688 7.03125 -9.765625 C 7.675781 -9.222656 8 -8.445312 8 -7.4375 C 8 -6.65625 7.804688 -6 7.421875 -5.46875 C 7.035156 -4.945312 6.507812 -4.582031 5.84375 -4.375 L 9.484375 0 L 6.40625 0 L 3.1875 -4.1875 L 3.1875 0 L 0.765625 0 Z M 3.1875 -5.890625 L 3.46875 -5.890625 C 3.6875 -5.890625 3.875 -5.890625 4.03125 -5.890625 C 4.1875 -5.898438 4.359375 -5.929688 4.546875 -5.984375 C 4.742188 -6.035156 4.898438 -6.109375 5.015625 -6.203125 C 5.140625 -6.296875 5.242188 -6.429688 5.328125 -6.609375 C 5.421875 -6.796875 5.46875 -7.015625 5.46875 -7.265625 C 5.46875 -7.523438 5.421875 -7.742188 5.328125 -7.921875 C 5.242188 -8.109375 5.140625 -8.25 5.015625 -8.34375 C 4.898438 -8.4375 4.742188 -8.507812 4.546875 -8.5625 C 4.359375 -8.613281 4.1875 -8.640625 4.03125 -8.640625 C 3.875 -8.648438 3.6875 -8.65625 3.46875 -8.65625 L 3.1875 -8.65625 Z M 3.1875 -5.890625 "/></g></g><g style="fill:#ffffff;fill-opacity:1;"><g transform="translate(197.930948, 205.026915)"><path style="stroke:none" d="M 6.140625 -10.578125 L 10.421875 0 L 7.828125 0 L 7.046875 -2.109375 L 3.015625 -2.109375 L 2.234375 0 L -0.359375 0 L 3.90625 -10.578125 Z M 6.21875 -4.234375 L 5.046875 -7.3125 L 5.015625 -7.3125 L 3.828125 -4.234375 Z M 6.21875 -4.234375 "/></g></g><g style="fill:#ffffff;fill-opacity:1;"><g transform="translate(210.558255, 205.026915)"><path style="stroke:none" d="M 3.1875 -10.578125 L 3.1875 0 L 0.765625 0 L 0.765625 -10.578125 Z M 3.1875 -10.578125 "/></g></g><g style="fill:#ffffff;fill-opacity:1;"><g transform="translate(217.077507, 205.026915)"><path style="stroke:none" d="M 3.1875 -10.578125 L 3.1875 -2.109375 L 6.828125 -2.109375 L 6.828125 0 L 0.765625 0 L 0.765625 -10.578125 Z M 3.1875 -10.578125 "/></g></g><g style="fill:#ffffff;fill-opacity:1;"><g transform="translate(226.894592, 205.026915)"><path style="stroke:none" d="M 6.828125 -10.578125 L 6.828125 -8.46875 L 3.1875 -8.46875 L 3.1875 -6.359375 L 6.671875 -6.359375 L 6.671875 -4.25 L 3.1875 -4.25 L 3.1875 -2.109375 L 6.828125 -2.109375 L 6.828125 0 L 0.765625 0 L 0.765625 -10.578125 Z M 6.828125 -10.578125 "/></g></g><g style="fill:#ffffff;fill-opacity:1;"><g transform="translate(236.904155, 205.026915)"><path style="stroke:none" d="M 0.765625 -10.578125 L 4.546875 -10.578125 C 5.566406 -10.578125 6.394531 -10.304688 7.03125 -9.765625 C 7.675781 -9.222656 8 -8.445312 8 -7.4375 C 8 -6.65625 7.804688 -6 7.421875 -5.46875 C 7.035156 -4.945312 6.507812 -4.582031 5.84375 -4.375 L 9.484375 0 L 6.40625 0 L 3.1875 -4.1875 L 3.1875 0 L 0.765625 0 Z M 3.1875 -5.890625 L 3.46875 -5.890625 C 3.6875 -5.890625 3.875 -5.890625 4.03125 -5.890625 C 4.1875 -5.898438 4.359375 -5.929688 4.546875 -5.984375 C 4.742188 -6.035156 4.898438 -6.109375 5.015625 -6.203125 C 5.140625 -6.296875 5.242188 -6.429688 5.328125 -6.609375 C 5.421875 -6.796875 5.46875 -7.015625 5.46875 -7.265625 C 5.46875 -7.523438 5.421875 -7.742188 5.328125 -7.921875 C 5.242188 -8.109375 5.140625 -8.25 5.015625 -8.34375 C 4.898438 -8.4375 4.742188 -8.507812 4.546875 -8.5625 C 4.359375 -8.613281 4.1875 -8.640625 4.03125 -8.640625 C 3.875 -8.648438 3.6875 -8.65625 3.46875 -8.65625 L 3.1875 -8.65625 Z M 3.1875 -5.890625 "/></g></g><g style="fill:#ffffff;fill-opacity:1;"><g transform="translate(248.658873, 205.026915)"><path style="stroke:none" d="M 4.671875 -10.78125 C 5.242188 -10.78125 5.800781 -10.695312 6.34375 -10.53125 C 6.894531 -10.363281 7.300781 -10.195312 7.5625 -10.03125 L 7.953125 -9.78125 L 6.984375 -7.84375 C 6.898438 -7.894531 6.789062 -7.960938 6.65625 -8.046875 C 6.519531 -8.128906 6.265625 -8.238281 5.890625 -8.375 C 5.515625 -8.507812 5.164062 -8.578125 4.84375 -8.578125 C 4.4375 -8.578125 4.125 -8.488281 3.90625 -8.3125 C 3.6875 -8.144531 3.578125 -7.914062 3.578125 -7.625 C 3.578125 -7.488281 3.628906 -7.359375 3.734375 -7.234375 C 3.835938 -7.109375 4.007812 -6.972656 4.25 -6.828125 C 4.5 -6.691406 4.71875 -6.578125 4.90625 -6.484375 C 5.101562 -6.398438 5.394531 -6.273438 5.78125 -6.109375 C 6.46875 -5.816406 7.050781 -5.421875 7.53125 -4.921875 C 8.019531 -4.421875 8.265625 -3.851562 8.265625 -3.21875 C 8.265625 -2.613281 8.15625 -2.082031 7.9375 -1.625 C 7.71875 -1.175781 7.414062 -0.820312 7.03125 -0.5625 C 6.65625 -0.300781 6.234375 -0.113281 5.765625 0 C 5.304688 0.125 4.804688 0.1875 4.265625 0.1875 C 3.804688 0.1875 3.351562 0.140625 2.90625 0.046875 C 2.46875 -0.046875 2.097656 -0.160156 1.796875 -0.296875 C 1.492188 -0.441406 1.222656 -0.582031 0.984375 -0.71875 C 0.742188 -0.851562 0.570312 -0.96875 0.46875 -1.0625 L 0.296875 -1.203125 L 1.5 -3.234375 C 1.601562 -3.148438 1.742188 -3.039062 1.921875 -2.90625 C 2.097656 -2.769531 2.414062 -2.59375 2.875 -2.375 C 3.332031 -2.15625 3.738281 -2.046875 4.09375 -2.046875 C 5.113281 -2.046875 5.625 -2.390625 5.625 -3.078125 C 5.625 -3.222656 5.585938 -3.359375 5.515625 -3.484375 C 5.441406 -3.609375 5.3125 -3.734375 5.125 -3.859375 C 4.9375 -3.984375 4.769531 -4.082031 4.625 -4.15625 C 4.488281 -4.226562 4.257812 -4.335938 3.9375 -4.484375 C 3.625 -4.628906 3.390625 -4.742188 3.234375 -4.828125 C 2.585938 -5.140625 2.085938 -5.53125 1.734375 -6 C 1.390625 -6.476562 1.21875 -6.992188 1.21875 -7.546875 C 1.21875 -8.492188 1.566406 -9.269531 2.265625 -9.875 C 2.972656 -10.476562 3.773438 -10.78125 4.671875 -10.78125 Z M 4.671875 -10.78125 "/></g></g><g clip-rule="nonzero" clip-path="url(#c28759e0e1)"><path style=" stroke:none;fill-rule:nonzero;fill:#ffffff;fill-opacity:1;" d="M 91.53125 167.902344 C 90.878906 168.441406 90.28125 169.019531 89.738281 169.636719 C 90 169.363281 90.269531 169.09375 90.550781 168.820312 C 90.800781 168.578125 91.125 168.273438 91.53125 167.902344 M 88.886719 168.414062 C 88.445312 168.808594 88.054688 169.183594 87.714844 169.539062 C 87.375 169.894531 87.070312 170.238281 86.800781 170.566406 C 87.40625 169.878906 88.101562 169.164062 88.886719 168.414062 M 134.628906 181.21875 L 134.617188 181.335938 L 134.613281 181.449219 L 134.621094 181.570312 L 134.636719 181.6875 L 134.664062 181.808594 L 134.707031 181.933594 L 134.757812 182.058594 L 134.828125 182.1875 L 134.910156 182.320312 L 135.011719 182.457031 L 135.128906 182.597656 L 135.265625 182.742188 C 135.085938 182.289062 134.871094 181.78125 134.628906 181.21875 M 109.066406 159.988281 L 108.699219 159.992188 C 101.027344 160.324219 94.429688 163.125 88.902344 168.402344 C 94.707031 163.308594 101.222656 160.691406 108.449219 160.539062 C 112.214844 160.566406 115.417969 161.132812 118.066406 162.246094 C 122.027344 163.832031 125.191406 165.738281 127.5625 167.964844 C 129.289062 169.582031 130.574219 171.015625 131.417969 172.273438 C 129.296875 169.28125 126.085938 166.699219 121.789062 164.523438 C 117.117188 162.378906 112.554688 161.304688 108.105469 161.304688 C 102.089844 161.1875 96.566406 163.382812 91.539062 167.894531 C 96.730469 163.753906 102.53125 161.914062 108.945312 162.382812 C 116.398438 163.058594 122.65625 165.726562 127.714844 170.390625 C 130.46875 172.992188 132.773438 176.601562 134.628906 181.214844 C 134.988281 180.042969 135.089844 179.339844 134.933594 179.105469 C 135.671875 181.3125 136.105469 183.601562 136.246094 185.980469 C 136.742188 192.695312 134.640625 199.027344 129.941406 204.96875 C 137.65625 196.257812 139.214844 186.546875 134.625 175.835938 C 132.128906 170.722656 128.847656 166.984375 124.78125 164.625 C 119.699219 161.582031 114.460938 160.035156 109.066406 159.988281 M 129.933594 204.980469 L 129.738281 205.1875 C 129.152344 205.820312 128.527344 206.460938 127.855469 207.105469 L 128.308594 206.746094 L 128.410156 206.660156 C 128.4375 206.640625 128.550781 206.53125 128.753906 206.335938 C 128.917969 206.164062 129.101562 205.964844 129.300781 205.738281 L 129.609375 205.378906 L 129.933594 204.980469 M 89.726562 169.644531 L 89.25 170.148438 C 83.824219 176.230469 81.40625 183.0625 81.992188 190.636719 C 81.121094 187.378906 81.167969 183.972656 82.132812 180.414062 C 83.0625 176.652344 84.617188 173.375 86.792969 170.578125 C 83.1875 174.714844 81.210938 180.007812 80.859375 186.460938 C 80.847656 187.625 81.042969 189.082031 81.441406 190.835938 C 82.847656 195.828125 83.671875 198.472656 83.910156 198.78125 C 85.460938 202.308594 87.285156 205.050781 89.386719 207.003906 C 92.066406 209.515625 95.019531 211.398438 98.246094 212.65625 C 101.503906 214.007812 104.585938 214.65625 107.5 214.601562 C 111.667969 214.511719 115.585938 213.890625 119.253906 212.738281 C 121.914062 211.789062 124.78125 209.914062 127.851562 207.113281 C 124.675781 209.644531 121.945312 211.265625 119.65625 211.972656 C 115.378906 213.148438 111.429688 213.707031 107.808594 213.652344 C 105.539062 213.808594 102.304688 212.984375 98.109375 211.179688 C 95.042969 209.835938 92.511719 208.179688 90.515625 206.210938 C 88.917969 204.609375 87.707031 203.117188 86.878906 201.730469 C 89.347656 204.695312 92.933594 207.527344 97.636719 210.226562 C 99.894531 211.484375 102.144531 212.386719 104.382812 212.929688 C 104.960938 213.0625 105.285156 213.109375 105.359375 213.074219 C 105.402344 213.058594 105.398438 213.03125 105.347656 212.988281 C 105.449219 213.058594 105.597656 212.992188 105.792969 212.792969 C 105.960938 212.59375 106.070312 212.394531 106.121094 212.199219 C 103.152344 212.128906 98.582031 210.105469 92.410156 206.125 C 88.886719 203.496094 86.234375 200.410156 84.457031 196.871094 C 82.769531 192.839844 82.40625 188.054688 83.367188 182.515625 C 84.070312 178.214844 86.191406 173.925781 89.726562 169.644531 "/></g><g clip-rule="nonzero" clip-path="url(#487efd307d)"><path style=" stroke:none;fill-rule:evenodd;fill:#ffffff;fill-opacity:1;" d="M 87.640625 194.1875 C 94.042969 191.761719 101.03125 192.710938 108.601562 197.027344 C 101.230469 194.210938 94.234375 193.21875 87.640625 194.1875 "/></g><g clip-rule="nonzero" clip-path="url(#5b954b0791)"><path style=" stroke:none;fill-rule:evenodd;fill:#ffffff;fill-opacity:1;" d="M 87.53125 193.042969 C 91.394531 191.058594 97.917969 191.707031 106.054688 193.960938 C 112.183594 195.65625 117.5625 197.558594 124.019531 197.484375 C 129.257812 197.421875 134.648438 195.929688 133.191406 189.949219 C 132.675781 194.148438 128.421875 195.089844 124.167969 194.972656 C 118.113281 194.804688 112.367188 192.765625 106.578125 191.226562 C 97.476562 188.808594 91.234375 189.53125 87.53125 193.042969 "/></g><g clip-rule="nonzero" clip-path="url(#aac99f270b)"><path style=" stroke:none;fill-rule:evenodd;fill:#ffffff;fill-opacity:1;" d="M 85.09375 190.886719 C 100.890625 187.476562 116.691406 185.699219 132.488281 187.246094 C 129.335938 189.570312 126.414062 192.042969 123.511719 194.527344 C 123.734375 194.539062 123.957031 194.546875 124.179688 194.554688 C 124.902344 194.574219 125.707031 194.566406 126.53125 194.492188 C 129.941406 191.554688 133.507812 188.679688 137.199219 185.863281 C 118.640625 183.050781 101.613281 185.636719 85.09375 190.886719 "/></g><path style=" stroke:none;fill-rule:evenodd;fill:#ffffff;fill-opacity:1;" d="M 122.394531 184.292969 C 111.90625 178.320312 103.199219 181.542969 91.316406 186.476562 C 97.992188 184.515625 110.210938 180.621094 117.527344 184.386719 C 119.152344 184.316406 120.773438 184.285156 122.394531 184.292969 "/><path style=" stroke:none;fill-rule:evenodd;fill:#ffffff;fill-opacity:1;" d="M 119.207031 181.738281 C 110.964844 177.339844 106.710938 179.058594 97.855469 182.84375 C 108.464844 179.011719 112.582031 179.523438 119.207031 181.738281 "/></g></svg>